<svg width="17" height="17" viewBox="0 0 17 17" fill="none" xmlns="http://www.w3.org/2000/svg">
<g clip-path="url(#clip0_1_54)">
<path d="M6.897 16.2699V9.11388H4.5V6.26988H6.897V4.02988C6.897 1.59488 8.384 0.269882 10.557 0.269882C11.597 0.269882 12.491 0.347882 12.75 0.382882V2.92588H11.244C10.063 2.92588 9.834 3.48888 9.834 4.31088V6.26988H12.5L12.134 9.11388H9.834V16.2699" fill="white"/>
<path d="M6.897 16.2699V9.11388H4.5V6.26988H6.897V4.02988C6.897 1.59488 8.384 0.269882 10.557 0.269882C11.597 0.269882 12.491 0.347882 12.75 0.382882V2.92588H11.244C10.063 2.92588 9.834 3.48888 9.834 4.31088V6.26988H12.5L12.134 9.11388H9.834V16.2699" stroke="white"/>
</g>
<defs>
<clipPath id="clip0_1_54">
<rect width="16" height="16" fill="white" transform="translate(0.5 0.269882)"/>
</clipPath>
</defs>
</svg>
