<svg width="17" height="17" viewBox="0 0 17 17" fill="none" xmlns="http://www.w3.org/2000/svg">
<g clip-path="url(#clip0_1_59)">
<path fill-rule="evenodd" clip-rule="evenodd" d="M16.444 4.96988C16.384 3.68888 16.09 2.55388 15.152 1.61788C14.217 0.68288 13.082 0.38988 11.8 0.32588C10.48 0.25088 6.52001 0.25088 5.20001 0.32588C3.92201 0.38588 2.78701 0.67988 1.84801 1.61488C0.910006 2.54988 0.620006 3.68488 0.556006 4.96588C0.481006 6.28688 0.481006 10.2459 0.556006 11.5659C0.616006 12.8479 0.910006 13.9829 1.84801 14.9179C2.78801 15.8529 3.91801 16.1459 5.20001 16.2099C6.52001 16.2849 10.48 16.2849 11.8 16.2099C13.081 16.1499 14.216 15.8569 15.152 14.9179C16.087 13.9829 16.38 12.8479 16.444 11.5659C16.519 10.2459 16.519 6.29088 16.444 4.96988ZM12.771 4.95588C12.8992 4.96003 13.027 4.93835 13.1466 4.89215C13.2663 4.84595 13.3755 4.77616 13.4676 4.68693C13.5598 4.5977 13.6331 4.49086 13.6831 4.37274C13.7331 4.25463 13.7589 4.12766 13.7589 3.99938C13.7589 3.8711 13.7331 3.74413 13.6831 3.62602C13.6331 3.50791 13.5598 3.40106 13.4676 3.31183C13.3755 3.2226 13.2663 3.15281 13.1466 3.10661C13.027 3.06041 12.8992 3.03873 12.771 3.04288C12.5227 3.05091 12.2872 3.1552 12.1144 3.3337C11.9416 3.51221 11.8449 3.75092 11.8449 3.99938C11.8449 4.24784 11.9416 4.48655 12.1144 4.66506C12.2872 4.84356 12.5227 4.94785 12.771 4.95588ZM8.50001 4.16588C7.96123 4.16522 7.42763 4.27089 6.92976 4.47682C6.4319 4.68276 5.97957 4.98492 5.59869 5.36598C5.21781 5.74704 4.91588 6.19952 4.71018 6.69749C4.50449 7.19545 4.39908 7.72911 4.40001 8.26788C4.39908 8.80665 4.50449 9.34031 4.71018 9.83827C4.91588 10.3362 5.21781 10.7887 5.59869 11.1698C5.97957 11.5508 6.4319 11.853 6.92976 12.0589C7.42763 12.2649 7.96123 12.3705 8.50001 12.3699C9.03895 12.3708 9.57277 12.2653 10.0709 12.0595C10.569 11.8537 11.0215 11.5516 11.4026 11.1705C11.7837 10.7894 12.0858 10.3368 12.2916 9.83874C12.4975 9.34064 12.6029 8.80682 12.602 8.26788C12.6028 7.72911 12.4973 7.19547 12.2914 6.69756C12.0856 6.19965 11.7836 5.74724 11.4026 5.36627C11.0216 4.9853 10.5692 4.68326 10.0713 4.47744C9.57341 4.27163 9.03978 4.16609 8.50101 4.16688L8.50001 4.16588ZM8.50001 10.9349C7.79317 10.9336 7.11568 10.6521 6.61597 10.1522C6.11625 9.65231 5.83506 8.97472 5.83401 8.26788C5.8348 7.56088 6.11607 6.88309 6.61609 6.38326C7.11611 5.88343 7.79401 5.60241 8.50101 5.60188C9.20783 5.60267 9.88548 5.88381 10.3853 6.38361C10.8851 6.88341 11.1662 7.56106 11.167 8.26788C11.167 9.73788 9.96701 10.9349 8.50101 10.9349H8.50001ZM13.216 14.5039C13.5599 14.3681 13.8723 14.1631 14.1338 13.9017C14.3953 13.6402 14.6002 13.3278 14.736 12.9839C15.095 12.0839 15.075 10.1139 15.062 8.83788C15.06 8.62588 15.058 8.43388 15.058 8.26788C15.058 8.10288 15.06 7.90988 15.062 7.69788C15.075 6.42288 15.095 4.45588 14.737 3.55288C14.6011 3.20885 14.396 2.8964 14.1344 2.63493C13.8727 2.37346 13.5601 2.16854 13.216 2.03288C12.313 1.67588 10.335 1.69488 9.05901 1.70688C8.85201 1.70888 8.66301 1.71088 8.50101 1.71088C8.33501 1.71088 8.14301 1.70888 7.93101 1.70688C6.65501 1.69388 4.68901 1.67388 3.78601 2.03188C3.44179 2.16765 3.12915 2.37273 2.8675 2.63437C2.60585 2.89602 2.40078 3.20866 2.26501 3.55288C1.90901 4.45588 1.92801 6.43388 1.94001 7.70988C1.94201 7.91688 1.94401 8.10588 1.94401 8.26788C1.94401 8.43388 1.94201 8.62588 1.94001 8.83788C1.92701 10.1139 1.90701 12.0799 2.26501 12.9829C2.40066 13.327 2.60559 13.6396 2.86706 13.9012C3.12853 14.1629 3.44097 14.368 3.78501 14.5039C4.68801 14.8599 6.66701 14.8409 7.94301 14.8289C8.15001 14.8269 8.33801 14.8249 8.50101 14.8249C8.66601 14.8249 8.85901 14.8269 9.07101 14.8289C10.346 14.8419 12.313 14.8619 13.216 14.5039Z" fill="white" stroke="white"/>
</g>
<defs>
<clipPath id="clip0_1_59">
<rect width="16" height="16" fill="white" transform="translate(0.5 0.269882)"/>
</clipPath>
</defs>
</svg>
