<svg width="17" height="17" viewBox="0 0 17 17" fill="none" xmlns="http://www.w3.org/2000/svg">
<g clip-path="url(#clip0_1_49)">
<path d="M0.836 5.87188V15.7699H4.164V5.87188H0.836ZM9.5 15.7699H6.164V8.10988C6.164 8.10988 6.11 6.20788 6.11 5.87088H9.392L9.5 7.24188C10.164 6.28388 11.164 5.55788 12.5 5.55788C14.836 5.55788 16.5 7.15188 16.5 10.0239V15.7699H13.164V10.3459C13.164 8.74588 12.352 8.10888 11.352 8.10888C10.352 8.10888 9.5 8.74488 9.5 10.0239V15.7699ZM2.484 4.27888C3.72 4.27888 4.5 3.49988 4.5 2.51988C4.484 1.53288 3.719 0.769882 2.516 0.769882C1.296 0.769882 0.5 1.53288 0.5 2.51988C0.5 3.49988 1.281 4.27988 2.46 4.27988H2.484V4.27888Z" fill="white" stroke="white"/>
</g>
<defs>
<clipPath id="clip0_1_49">
<rect width="16" height="16" fill="white" transform="translate(0.5 0.269882)"/>
</clipPath>
</defs>
</svg>
