<svg width="17" height="17" viewBox="0 0 17 17" fill="none" xmlns="http://www.w3.org/2000/svg">
<g clip-path="url(#clip0_1_44)">
<path d="M14.815 5.24088C13.7483 5.2425 12.7243 4.82223 11.9664 4.07175C11.2084 3.32127 10.778 2.30149 10.769 1.23488H8.155V8.37288L8.152 12.2829C8.152 12.6049 8.0862 12.9236 7.95862 13.2193C7.83104 13.5151 7.64438 13.7816 7.41009 14.0026C7.1758 14.2236 6.89882 14.3944 6.59616 14.5045C6.29349 14.6146 5.97152 14.6617 5.65 14.6429C5.26771 14.6218 4.89631 14.5079 4.568 14.3109C4.22152 14.1049 3.93345 13.8137 3.73113 13.4651C3.52881 13.1165 3.41896 12.7219 3.412 12.3189C3.40651 11.941 3.49159 11.5673 3.66012 11.229C3.82866 10.8907 4.07575 10.5977 4.38072 10.3745C4.68569 10.1512 5.03968 10.0043 5.41309 9.94591C5.78649 9.88753 6.16844 9.91941 6.527 10.0389V7.38688C6.27769 7.35011 6.02601 7.33173 5.774 7.33188C5.06311 7.3293 4.35981 7.47804 3.71084 7.76822C3.06187 8.0584 2.48208 8.48336 2.01 9.01488C1.27782 9.834 0.842171 10.8754 0.772998 11.9719C0.72724 12.6749 0.833819 13.3796 1.08545 14.0377C1.33708 14.6957 1.72783 15.2917 2.231 15.7849C3.17362 16.718 4.44766 17.2394 5.774 17.2349C6.028 17.2349 6.28 17.2159 6.527 17.1789C7.58211 17.0238 8.55984 16.5349 9.317 15.7839C9.78001 15.33 10.1482 14.7886 10.4 14.1912C10.6519 13.5938 10.7824 12.9522 10.784 12.3039L10.77 6.46388C11.93 7.35923 13.3547 7.84362 14.82 7.84088V5.24088H14.815Z" fill="white" stroke="white"/>
</g>
<defs>
<clipPath id="clip0_1_44">
<rect width="16" height="17" fill="white" transform="translate(0.5 0.269882)"/>
</clipPath>
</defs>
</svg>
