<svg width="17" height="17" viewBox="0 0 17 17" fill="none" xmlns="http://www.w3.org/2000/svg">
<g clip-path="url(#clip0_1_64)">
<path d="M14.855 4.79288C14.865 4.94388 14.865 5.09588 14.865 5.24688C14.865 9.87288 11.565 15.2029 5.535 15.2029C3.73611 15.2034 1.97977 14.6558 0.5 13.6329C0.764 13.6649 1.018 13.6759 1.292 13.6759C2.78267 13.6739 4.22451 13.1443 5.362 12.1809C4.67148 12.1648 4.00536 11.9223 3.466 11.4909C2.90856 11.0444 2.50071 10.4384 2.297 9.75388C2.502 9.78788 2.709 9.80588 2.917 9.80788C3.211 9.80788 3.505 9.76488 3.779 9.68788C3.02459 9.52046 2.35452 9.0897 1.889 8.47288C1.40595 7.83468 1.14627 7.05528 1.15 6.25488V6.21188C1.604 6.48188 2.112 6.63388 2.632 6.65588C2.182 6.33588 1.813 5.90288 1.558 5.39488C1.30176 4.8816 1.1689 4.31557 1.17 3.74188C1.17 3.09188 1.332 2.49588 1.617 1.97588C2.42686 3.04557 3.45493 3.93081 4.633 4.57288C5.798 5.20388 7.073 5.56688 8.378 5.63688C8.328 5.37688 8.297 5.10688 8.297 4.83588C8.297 2.90788 9.759 1.33588 11.577 1.33588C12.0321 1.33812 12.4814 1.43801 12.8946 1.62882C13.3078 1.81962 13.6752 2.09689 13.972 2.44188C14.7112 2.28896 15.4164 2.00261 16.053 1.59688C15.8191 2.39138 15.3077 3.07552 14.612 3.52488C15.272 3.44888 15.912 3.25388 16.5 2.98288C16.057 3.67415 15.5009 4.28601 14.855 4.79288Z" fill="white" stroke="white"/>
</g>
<defs>
<clipPath id="clip0_1_64">
<rect width="16" height="16" fill="white" transform="translate(0.5 0.269882)"/>
</clipPath>
</defs>
</svg>
